<svg id="visual" viewBox="0 0 1880 592" width="1880" height="592" xmlns="http://www.w3.org/2000/svg" xmlns:xlink="http://www.w3.org/1999/xlink" version="1.1"><rect x="0" y="0" width="1880" height="592" fill="#1e1e1e"></rect><defs><linearGradient id="grad1_0" x1="68.5%" y1="0%" x2="100%" y2="100%"><stop offset="-13.513513513513516%" stop-color="#ec2637" stop-opacity="1"></stop><stop offset="113.51351351351353%" stop-color="#ec2637" stop-opacity="1"></stop></linearGradient></defs><defs><linearGradient id="grad1_1" x1="68.5%" y1="0%" x2="100%" y2="100%"><stop offset="-13.513513513513516%" stop-color="#ec2637" stop-opacity="1"></stop><stop offset="113.51351351351353%" stop-color="#a42e2f" stop-opacity="1"></stop></linearGradient></defs><defs><linearGradient id="grad1_2" x1="68.5%" y1="0%" x2="100%" y2="100%"><stop offset="-13.513513513513516%" stop-color="#602a26" stop-opacity="1"></stop><stop offset="113.51351351351353%" stop-color="#a42e2f" stop-opacity="1"></stop></linearGradient></defs><defs><linearGradient id="grad1_3" x1="68.5%" y1="0%" x2="100%" y2="100%"><stop offset="-13.513513513513516%" stop-color="#602a26" stop-opacity="1"></stop><stop offset="113.51351351351353%" stop-color="#1e1e1e" stop-opacity="1"></stop></linearGradient></defs><defs><linearGradient id="grad2_0" x1="0%" y1="0%" x2="31.5%" y2="100%"><stop offset="-13.513513513513516%" stop-color="#ec2637" stop-opacity="1"></stop><stop offset="113.51351351351353%" stop-color="#ec2637" stop-opacity="1"></stop></linearGradient></defs><defs><linearGradient id="grad2_1" x1="0%" y1="0%" x2="31.5%" y2="100%"><stop offset="-13.513513513513516%" stop-color="#a42e2f" stop-opacity="1"></stop><stop offset="113.51351351351353%" stop-color="#ec2637" stop-opacity="1"></stop></linearGradient></defs><defs><linearGradient id="grad2_2" x1="0%" y1="0%" x2="31.5%" y2="100%"><stop offset="-13.513513513513516%" stop-color="#a42e2f" stop-opacity="1"></stop><stop offset="113.51351351351353%" stop-color="#602a26" stop-opacity="1"></stop></linearGradient></defs><defs><linearGradient id="grad2_3" x1="0%" y1="0%" x2="31.5%" y2="100%"><stop offset="-13.513513513513516%" stop-color="#1e1e1e" stop-opacity="1"></stop><stop offset="113.51351351351353%" stop-color="#602a26" stop-opacity="1"></stop></linearGradient></defs><g transform="translate(1880, 0)"><path d="M0 444C-85.3 436.8 -170.6 429.6 -222 384.5C-273.4 339.4 -290.8 256.4 -322.2 186C-353.5 115.6 -398.8 57.8 -444 0L0 0Z" fill="#3f2522"></path><path d="M0 333C-64 327.6 -128 322.2 -166.5 288.4C-205 254.6 -218.1 192.3 -241.6 139.5C-265.1 86.7 -299.1 43.3 -333 0L0 0Z" fill="#812e2b"></path><path d="M0 222C-42.7 218.4 -85.3 214.8 -111 192.3C-136.7 169.7 -145.4 128.2 -161.1 93C-176.8 57.8 -199.4 28.9 -222 0L0 0Z" fill="#c72c33"></path><path d="M0 111C-21.3 109.2 -42.7 107.4 -55.5 96.1C-68.3 84.9 -72.7 64.1 -80.5 46.5C-88.4 28.9 -99.7 14.4 -111 0L0 0Z" fill="#ec2637"></path></g><g transform="translate(0, 592)"><path d="M0 -444C77.7 -432.4 155.4 -420.8 222 -384.5C288.6 -348.2 344.2 -287.2 379.3 -219C414.5 -150.8 429.2 -75.4 444 0L0 0Z" fill="#3f2522"></path><path d="M0 -333C58.3 -324.3 116.5 -315.6 166.5 -288.4C216.5 -261.2 258.1 -215.4 284.5 -164.3C310.9 -113.1 321.9 -56.5 333 0L0 0Z" fill="#812e2b"></path><path d="M0 -222C38.8 -216.2 77.7 -210.4 111 -192.3C144.3 -174.1 172.1 -143.6 189.7 -109.5C207.2 -75.4 214.6 -37.7 222 0L0 0Z" fill="#c72c33"></path><path d="M0 -111C19.4 -108.1 38.8 -105.2 55.5 -96.1C72.2 -87.1 86 -71.8 94.8 -54.8C103.6 -37.7 107.3 -18.8 111 0L0 0Z" fill="#ec2637"></path></g></svg>